<?xml version="1.0" encoding="utf-8"?>
<!-- Generator: Adobe Illustrator 25.0.0, SVG Export Plug-In . SVG Version: 6.00 Build 0)  -->
<svg version="1.1" id="Layer_1" xmlns="http://www.w3.org/2000/svg" xmlns:xlink="http://www.w3.org/1999/xlink" x="0px" y="0px"
	 viewBox="0 0 1960 2100.4" enable-background="new 0 0 1960 2100.4" xml:space="preserve">
<g>
	<path d="M89.2,328.6l26.4-20.9V113L76.8,88.5h72.1v217.4l39.5,22.7H89.2z M194.6,208.6l96.6,120h-82l23.8-18.7l-66.6-83.8
		L194.6,208.6z M182.6,88.5c4-0.4,7.7-0.4,11.3-0.4c44.7,0,70.3,22,70.3,54.9c0,25.3-15.4,42.1-47.6,49.8
		c7.7-9.1,12.1-22.3,12.1-36.6C228.7,131.3,215.1,103.1,182.6,88.5z"/>
	<path d="M374.7,331.9c-45.7,0-76.1-32.2-76.1-86c0-42.8,19.4-78.7,49.4-88.6c-8.4,12.1-16.5,49.4-16.5,79.4
		c0,45,17.9,70.3,53.1,70.3c15,0,34.8-4.4,46.5-10.6C423.4,318.7,403.6,331.9,374.7,331.9z M377.3,155.9c39.2,4,61.5,40.6,54.5,90
		h-73.9l42.8-20.5C400.7,200.9,389,166.1,377.3,155.9z"/>
	<path d="M481.2,309.9V178.5L450.5,158H512v150.1l28.2,20.5h-78.7L481.2,309.9z M586.3,310.3l0.7-76.9c0.4-45.4-8.8-66.6-34-76.1
		c6.2-1.1,12.1-1.5,17.2-1.5c36.6,0,47.9,24.9,47.9,54.2l-0.7,97.7l29.3,20.9h-80.5L586.3,310.3z"/>
	<path d="M703,331.9c-25.3,0-42.1-16.1-42.1-39.9c0-33.3,32.9-52.7,90-54.2l0.4-81.3c25.3-1.1,31.5,28.5,31.1,52l-0.7,84.9
		c0,13.5,8.8,19.4,24.5,15.7c-7.7,16.8-15,22.7-27.4,22.7c-18.7,0-28.2-13.5-28.2-38.8l0.4-50.5c-32.6,1.5-57.1,18.7-57.1,46.1
		c0,15.7,7.7,34,20.9,42.1C710.7,331.5,707,331.9,703,331.9z M675.6,219.2l-1.8-61.1l46.1-1.1L675.6,219.2z"/>
	<path d="M824.9,328.6l19.8-19.4V178.5L813.9,158h61.5v150.8l28.2,19.8H824.9z M886.4,88.5l-27.8,43.6l-28.9-43.6H886.4z"/>
	<path d="M1011.2,291.3c0-26-15.7-31.8-33.7-37.7c-23.8-8.1-51.6-15.4-51.6-48.7c0-30.7,23.4-47.6,49-48.3
		c-15.7,9.5-19.8,26-19.8,38.1c0,19,10.2,24.5,33.3,32.2c19,5.9,52.3,15.4,52.3,53.1c0,24.9-13.9,45.4-49.4,49.8
		C1009.7,313.2,1011.2,300.4,1011.2,291.3z M925.9,280.3l41.4,49.8l-37.7-1.1L925.9,280.3z M994,156.6l37.7,1.5l3.7,44.7L994,156.6z
		"/>
	<path d="M1156.1,291.3c0-26-15.7-31.8-33.7-37.7c-23.8-8.1-51.6-15.4-51.6-48.7c0-30.7,23.4-47.6,49-48.3
		c-15.7,9.5-19.8,26-19.8,38.1c0,19,10.2,24.5,33.3,32.2c19,5.9,52.3,15.4,52.3,53.1c0,24.9-13.9,45.4-49.4,49.8
		C1154.6,313.2,1156.1,300.4,1156.1,291.3z M1070.8,280.3l41.4,49.8l-37.7-1.1L1070.8,280.3z M1138.9,156.6l37.7,1.5l3.7,44.7
		L1138.9,156.6z"/>
	<path d="M1253.5,331.9c-25.3,0-42.1-16.1-42.1-39.9c0-33.3,32.9-52.7,90-54.2l0.4-81.3c25.3-1.1,31.5,28.5,31.1,52l-0.7,84.9
		c0,13.5,8.8,19.4,24.5,15.7c-7.7,16.8-15,22.7-27.4,22.7c-18.7,0-28.2-13.5-28.2-38.8l0.4-50.5c-32.6,1.5-57.1,18.7-57.1,46.1
		c0,15.7,7.7,34,20.9,42.1C1261.1,331.5,1257.5,331.9,1253.5,331.9z M1226,219.2l-1.8-61.1l46.1-1.1L1226,219.2z"/>
	<path d="M1395.1,309.9V178.5l-30.7-20.5h61.5v150.1l28.2,20.5h-78.7L1395.1,309.9z M1500.1,310.3l0.7-76.9
		c0.4-45.4-8.8-66.6-34-76.1c6.2-1.1,12.1-1.5,17.2-1.5c36.6,0,47.9,24.9,47.9,54.2l-0.7,97.7l29.3,20.9H1480L1500.1,310.3z"/>
	<path d="M1609.9,237.5c0,46.5,19,69.5,53.4,69.5c12.8,0,26.7-3.3,41.7-9.5c-6.6,22.3-25.6,34.8-54.2,34.8
		c-45.4,0-73.6-32.2-73.6-87.8c0-51.6,23.8-88.9,58.6-87.8C1619.8,172,1609.9,204.2,1609.9,237.5z M1658.2,156.9l41.7,1.1l1.8,62.2
		L1658.2,156.9z"/>
	<path d="M1806.8,331.9c-45.8,0-76.1-32.2-76.1-86c0-42.8,19.4-78.7,49.4-88.6c-8.4,12.1-16.5,49.4-16.5,79.4
		c0,45,17.9,70.3,53.1,70.3c15,0,34.8-4.4,46.5-10.6C1855.5,318.7,1835.8,331.9,1806.8,331.9z M1809.4,155.9
		c39.2,4,61.5,40.6,54.5,90H1790l42.8-20.5C1832.8,200.9,1821.1,166.1,1809.4,155.9z"/>
</g>
<g>
	<path d="M97.7,501.9l16.9-8.7l2.9-29.1l-21.7-41.9l-7-8.2H121l-12.7,7.1l21.6,41l-3.1,31l15.4,8.8H97.7z M169.8,414l-7.5,5.6
		l-22.5,27.5l10.9-23.7l-10.7-9.4H169.8z"/>
	<path d="M180.4,439.3c-7.8,9.2-12.1,22.1-12.1,35.1c0,13.5,4.6,23.3,13,28.7c-15,0-25.1-11.4-25.1-28.5
		C156.3,457.5,166.2,443.2,180.4,439.3z M190.3,501.5c5.8-8.3,9.6-21.8,9.6-34.4c0-12.1-3.5-22.9-9.4-28.5c13,0.9,21.4,12.1,21.4,28
		C212,482.7,203.3,496.7,190.3,501.5z"/>
	<path d="M221.3,484.2l12.9,18.2l-13.5-0.4L221.3,484.2z M251.6,487.2c0-14.2-27.6-13.3-27.6-30.3c0-9.6,8.7-17.7,19.6-18
		c-4.8,2.8-8.6,8.4-8.6,13.5c0,13.9,27.6,13.4,27.6,32.3c0,9.6-7.1,15.9-19.7,17.6C248.3,497.9,251.6,492.1,251.6,487.2z
		 M250.3,438.9l13.5,0.5l-0.4,16.3L250.3,438.9z"/>
	<path d="M277.4,494.7l7.6-72.6l-10.3-8h22.1l-8.4,80.7l9.2,7.2h-28.1L277.4,494.7z M314.9,494.7l3.4-28.5c0.4-3.1,0.5-5.9,0.5-8.4
		c0-10.3-3.1-15.7-9.9-18.5c2.3-0.4,4.4-0.5,6.3-0.5c11.5,0,15.3,7,15.3,15.9c0,1.3-0.1,2.5-0.3,3.9l-4.2,36.2l9.6,7.2h-28.8
		L314.9,494.7z"/>
	<path d="M342.1,501.9l7.9-7.2l4.8-47.7l-10.2-7.5h22.1l-5.8,55.2l9.2,7.2H342.1z M373.4,414l-11.7,15.9L353,414H373.4z"/>
	<path d="M392.4,476.3c0,10.9,3.6,23.2,9.5,26.5c-0.7,0.1-1.7,0.1-2.3,0.1c-11.9,0-19.2-10.7-19.2-26c0-21.3,13.9-38.1,31-38.1
		c1.2,0,2,0.1,3.5,0.3C402.2,444.5,392.4,458.3,392.4,476.3z M424.8,438.8l11,0.3l-5.8,55.3l8.8,7.5h-20.6L424.8,438.8z"/>
	<path d="M452.8,494.7l7.8-73.7l-10.5-7h22.1l-8.4,80.7l9.4,7.2h-28.3L452.8,494.7z M485.5,495.1l-16.2-25.3l8.3-7.2l25.5,39.4
		h-24.8L485.5,495.1z M508.8,439.5l-16.8,11.8l-10.6-11.8H508.8z"/>
	<path d="M508.2,501.9l7.9-7.2l4.8-47.7l-10.2-7.5h22.1l-5.8,55.2l9.2,7.2H508.2z M539.4,414l-11.7,15.9L519,414H539.4z"/>
	<path d="M582.1,494.1l7.5-71.7l-12.7-8.4h36.4l-11.7,7.9l-7.6,71.8l13.1,8.2h-35.4L582.1,494.1z M632.8,494.7l-28.7-33.9l8.7-8
		l41.7,49.2h-31.6L632.8,494.7z M662.7,414l-14.3,9.4l-23.5,19.6l13.9-21.2l-9-7.8H662.7z"/>
	<path d="M669.6,476.3c0,10.9,3.6,23.2,9.5,26.5c-0.7,0.1-1.7,0.1-2.3,0.1c-11.9,0-19.2-10.7-19.2-26c0-21.3,13.9-38.1,31-38.1
		c1.2,0,2,0.1,3.5,0.3C679.4,444.5,669.6,458.3,669.6,476.3z M702.1,438.8l11,0.3l-5.8,55.3l8.8,7.5h-20.6L702.1,438.8z"/>
	<path d="M728.4,446.4l-4.8-7h25.1l-9.2,6.4l14.7,56h-11.3L728.4,446.4z M770.9,445.9l14.7,56h-11.3l-14.6-55.6l-4.6-6.8h24.9
		L770.9,445.9z M805.5,448.3l-13,28.4l5.4-30.2l-8-7.1h22.5L805.5,448.3z"/>
	<path d="M825.5,476.3c0,10.9,3.6,23.2,9.5,26.5c-0.7,0.1-1.7,0.1-2.3,0.1c-11.9,0-19.2-10.7-19.2-26c0-21.3,13.9-38.1,31-38.1
		c1.2,0,2,0.1,3.5,0.3C835.2,444.5,825.5,458.3,825.5,476.3z M857.9,438.8l11,0.3l-5.8,55.3l8.8,7.5h-20.6L857.9,438.8z"/>
	<path d="M872.5,528.2c-1.5,0-3.1-0.1-4.6-0.5c10.9-6.2,17-14.1,18.9-31.6l5-47.8l-12.2-8.7h24.3l-6.4,60.8
		C895.5,517.7,884.4,528.2,872.5,528.2z M910.4,414l-11.7,15.9l-8.7-15.9H910.4z"/>
	<path d="M912.4,501.9l7.9-7.2l4.8-47.7l-10.2-7.5h22.1l-5.8,55.2l9.2,7.2H912.4z M943.7,414L932,429.9l-8.7-15.9H943.7z"/>
	<path d="M955.4,494.4l5-46.9l-9.2-8h21l-5.8,54.7l12.7,7.8h-31.6L955.4,494.4z M974.2,446.4l17.7-9.5l-2,19.3L974.2,446.4z"/>
	<path d="M993.8,501.9l7.9-7.2l4.8-47.7l-10.2-7.5h22.1l-5.8,55.2l9.2,7.2H993.8z M1025,414l-11.7,15.9l-8.7-15.9H1025z"/>
	<path d="M1054.1,413.3c-2.3,10.5-10.5,20.2-20.5,24.1c5.5-7.1,9.2-16.9,9.6-25.6L1054.1,413.3z"/>
	<path d="M1050.2,484.2l12.9,18.2l-13.5-0.4L1050.2,484.2z M1080.5,487.2c0-14.2-27.6-13.3-27.6-30.3c0-9.6,8.7-17.7,19.6-18
		c-4.8,2.8-8.6,8.4-8.6,13.5c0,13.9,27.6,13.4,27.6,32.3c0,9.6-7.1,15.9-19.7,17.6C1077.2,497.9,1080.5,492.1,1080.5,487.2z
		 M1079.3,438.9l13.5,0.5l-0.4,16.3L1079.3,438.9z"/>
	<path d="M1129.9,436c2.3-10.5,10.3-20.2,20.4-24.1c-5.5,7.1-9.1,16.9-9.6,25.6L1129.9,436z M1148.4,436
		c2.3-10.5,10.3-20.2,20.4-24.1c-5.5,7.1-9.1,16.9-9.6,25.6L1148.4,436z"/>
	<path d="M1209.6,414l-15,7.6l20.5,80.3h-12.3l-20.4-79.5l-7.1-8.4H1209.6z M1249,414l-15.1,7.5l20.6,80.4h-12.3l-20.4-79.1
		l-7.5-8.8H1249z M1296.2,414l-9.1,8.2l-25.3,48l15.4-47.7l-12.3-8.4H1296.2z"/>
	<path d="M1291.8,501.9l7.9-7.2l4.8-47.7l-10.2-7.5h22.1l-5.8,55.2l9.2,7.2H1291.8z M1323,414l-11.7,15.9l-8.7-15.9H1323z"/>
	<path d="M1342.3,472.6c0,13.8,6.2,22.8,17,22.8c4.6,0,10.1-1.6,15.1-4.8c-3.2,8.2-10.9,12.7-20.5,12.7c-14.9,0-23.6-10.9-23.6-28.1
		c0-19.7,11.4-36.2,24.7-36.2C1347.8,445.4,1342.3,459.6,1342.3,472.6z M1363.1,439.1l14.9,0.4l-1.7,22.8L1363.1,439.1z"/>
	<path d="M1389.7,494.7l7.8-73.7l-10.5-7h22.1l-8.4,80.7l9.4,7.2h-28.3L1389.7,494.7z M1422.4,495.1l-16.2-25.3l8.3-7.2l25.5,39.4
		h-24.8L1422.4,495.1z M1445.7,439.5l-16.8,11.8l-10.6-11.8H1445.7z"/>
	<path d="M1470.1,503.1c-15.1,0-24.5-11.3-24.5-28.1c0-16.6,9.1-31.8,21.3-35.8c-7,12.7-9.2,23-9.2,33.5c0,16.2,5.6,22.4,17,22.4
		c5.9,0,11.9-1.6,16.8-5C1487.7,498.4,1479.8,503.1,1470.1,503.1z M1483.4,460.9c0-9.6-2.7-19.2-5.9-22.2
		c10.9,1.2,17.4,9.5,17.4,22.5c0,3.4-0.4,6.8-1.3,10.5H1467l16.2-7.5C1483.4,463.2,1483.4,462,1483.4,460.9z"/>
	<path d="M1515.7,476.2c0,11.4,4.2,23.6,9.5,26.7c-0.7,0.1-1.7,0.1-2.3,0.1c-11.9,0-19.2-10.5-19.2-25.6c0-21.3,14.1-38.5,31-38.5
		c1.1,0,2,0.1,3.5,0.3C1524.7,444.9,1515.7,459.3,1515.7,476.2z M1549.9,422.6l-12.3-8.6h24.3l-8.4,80.4l8.8,7.5h-20.6L1549.9,422.6
		z"/>
	<path d="M1614.3,462.2c0,21.7,11.3,35.5,31.6,40.3c-2.5,0.3-5.4,0.4-7.6,0.4c-22.8,0-37.1-14.9-37.1-39c0-28.8,20.5-50.7,48.8-50.7
		h2.7C1627.2,421.8,1614.3,438.8,1614.3,462.2z M1673.7,476.8l-2.7,25.1l-14.6,0.4L1673.7,476.8z M1676.9,439.3l-11.8-25.7l14.5,0.4
		L1676.9,439.3z"/>
	<path d="M1682.5,501.9l7.9-7.2l4.8-47.7l-10.2-7.5h22.1l-5.8,55.2l9.2,7.2H1682.5z M1713.7,414l-11.7,15.9l-8.7-15.9H1713.7z"/>
	<path d="M1745,495.3c3.5,0,7-1.3,10-3.6c-1.6,5.9-6.6,11.5-15.4,11.5c-7.8,0-15.4-3.9-14.3-13.9l4.6-42.1l-8.6,0.1l21.8-20.5
		l-6.3,58.6C1736,492.8,1739.2,495.3,1745,495.3z M1760.8,435.4l-1.7,16.6l-15-8.4L1760.8,435.4z"/>
	<path d="M1780.2,445.6l14.5,42.9l-5.9,14.7l-19.3-55.6l-5.6-8.2h25.2L1780.2,445.6z M1782.2,527.9h-14.3l18.8-18.2L1782.2,527.9z
		 M1814.2,450l-14.2,26.7l7.4-30.7l-7.4-6.6h22.4L1814.2,450z"/>
	<path d="M1849.7,413.3c-2.3,10.5-10.5,20.2-20.4,24.1c5.5-7.1,9.1-16.9,9.6-25.6L1849.7,413.3z M1868.2,413.3
		c-2.3,10.5-10.3,20.2-20.4,24.1c5.5-7.1,9.1-16.9,9.6-25.6L1868.2,413.3z"/>
</g>
<g>
	<path d="M118.5,803.1c-18.7-20.1-29.6-47.9-29.6-82c0-51.6,24.9-99.2,65.1-118.9c-17.6,28.2-26.7,70.6-26.7,107.6
		c0,26.7,5.1,49.8,14.6,68.8l125.2-131.4c-13.2-26-32.9-45-57.5-56.7c32.6,0.4,60.4,12.4,80.2,32.9l32.2-33.7l-29.6,36.6
		c19,21.6,30,51.2,30,86.4c0,51.6-23.1,94.1-62.6,113.1c16.8-23.8,24.2-65.5,24.2-99.9c0-27.8-4.8-51.6-13.5-71.7l-116,144.2
		c14.6,18.3,34.8,31.1,60,38.1c-4,0.4-8.4,0.4-12.4,0.4c-24.5,0-46.5-6.2-64-17.6l-12.1,15h-37L118.5,803.1z"/>
	<path d="M385,751.1c0,35.9,16.1,74.7,35.5,85.3c-3.3,0.7-6.6,0.7-9.9,0.7c-36.2,0-60.4-31.5-60.4-80.9c0-56.4,31.1-94.4,76.1-94.4
		c3.3,0,6.6,0.4,10.2,0.7C405.1,677.2,385,711.6,385,751.1z M463.3,617.5l-37.3-23.4h69.9v218.9l27.1,21.2h-59.7V617.5z"/>
	<path d="M554.4,815.1V616l-30-22H587v220.7l27.8,19.4H535L554.4,815.1z M659.1,814.8l0.7-80.5c0.4-41.7-9.1-61.9-33.7-71
		c7-1.5,13.2-2.2,19-2.2c35.5,0,47.6,24.2,47.6,53.8l-1.1,99.9l28.9,19.4h-81.3L659.1,814.8z"/>
	<path d="M731.2,797.2c0-33.3,32.9-52.7,90-54.2c2.6-39.5,22-71.7,50.5-80.5c-8.4,13.2-15.7,49-15.7,78.7
		c0,45.7,17.9,70.6,53.8,70.6c14.6,0,32.9-4,45-10.2c-7.3,22.3-27.8,35.9-57.5,35.9c-46.1,0-76.5-32.2-76.5-85.6c0-1.5,0-2.6,0-4
		c-31.5,1.8-54.9,19.8-54.9,47.2c0,15.4,7,32.6,19,41C753.1,841.5,731.2,824.7,731.2,797.2z M745.5,724.7l-1.5-61.1l46.5-1.5
		L745.5,724.7z M899.5,661.1c40.6,3.3,63.3,39.9,56.4,90.4h-74.7l42.1-20.5C923.3,704.6,912,671.3,899.5,661.1z"/>
	<path d="M997.3,815.1V613.8l-30.4-19.8h63v220.3l28.2,19.8h-80.5L997.3,815.1z"/>
	<path d="M1068.3,834.2l26.4-20.9v-127l-27.8-10.6l27.8-12.8c0-43.9,11.3-63.3,32.9-70.3l-0.4,218.9l41,22.7H1068.3z M1175.1,652.3
		v46.5l-44.3-23.8L1175.1,652.3z M1148.8,591.5l41.7,1.1l-0.7,47.9L1148.8,591.5z"/>
	<path d="M1307.3,810.7V627.4l-50.5-13.2l85.3-23.1v219.2l41.4,23.8h-119.3L1307.3,810.7z"/>
	<path d="M1468.7,590.4c47.9,0,76.1,32.6,76.1,91.9c0,91.1-65.1,158.5-150.1,153.4c75.4-20.5,114.2-71.4,114.2-147.9
		c0-53.8-19-89.3-46.5-89.3c-22.7,0-35.5,24.2-35.5,63.7c0,33.3,9.9,54.9,34.4,70.6c-43.2,0.4-69.9-22-69.9-63.7
		C1391.4,624.1,1422.5,590.4,1468.7,590.4z"/>
	<path d="M1709.1,804.9l-3.7,29.3h-140.5l10.2-29.3H1709.1z M1660.8,663.3c0-34-17.6-47.9-49.8-47.9c-15,0-29.6,3.3-44.7,9.1
		c13.9-22.7,35.5-34,64.4-34c40.6,0,66.6,23.4,66.6,62.6c0,38.1-24.5,72.1-71.7,96.6C1655.7,711.2,1660.8,685.9,1660.8,663.3z"/>
	<path d="M1835.4,770.5c0-29.3-22.3-46.1-67.3-50.1l15.4-25.3c55.6,5.9,87.5,31.5,87.5,72.8c0,42.8-34,69.9-80.2,69.9
		c-30.7,0-51.2-11.7-63-32.9c11.3,4.8,33.3,9.9,51.2,9.9C1815.6,814.8,1835.4,797.9,1835.4,770.5z M1779.8,614.2
		c-15.4,0-31.8,3.3-45.4,8.8c14.3-20.9,36.2-32.6,63.7-32.6c33.7,0,57.5,17.2,57.5,43.9c0,22-16.1,36.6-49.4,44.3
		c10.6-10.6,15.7-20.5,15.7-34.4C1821.8,625.2,1808.3,614.2,1779.8,614.2z"/>
</g>
<g>
	<path d="M69.8,1007.4l10.2-7.6l7.6-72.1l-12.7-8.2H112l-11.7,7.9l-7.6,71.8l13.5,8.2H69.8z M80.4,911.4l17.8-14.9l13.5,14.6
		l-14.3-4L80.4,911.4z"/>
	<path d="M120.7,1000.7l5-48.2l-9.9-7.6h22.5l-5.8,55.2l9.2,7.4h-28.8L120.7,1000.7z M158.2,1000.8l3.4-29.2
		c0.4-3.2,0.5-5.9,0.5-8.6c0-10.2-2.9-15.5-9.8-18.2c2.5-0.5,4.8-0.8,6.7-0.8c11.3,0,15.4,6.8,15.4,15.9c0,1.3-0.1,2.5-0.3,3.8
		l-4.2,36.2l9.8,7.5h-29.2L158.2,1000.8z"/>
	<path d="M188.5,989.4l13.1,18.5l-13.9-0.5L188.5,989.4z M218.8,992.9c0-14.2-27.7-13.7-27.7-30.7c0-9.6,8.8-17.8,19.8-18
		c-4.7,2.8-8.3,8.3-8.3,13.3c0,13.8,27.9,13.8,27.9,32.6c0,9.8-7.5,16.3-20.4,17.7C215.7,1003.5,218.8,997.8,218.8,992.9z
		 M200.7,1015.4h11l-11.8,20.2L200.7,1015.4z M217.7,944.2l13.9,0.5l-0.5,16.8L217.7,944.2z"/>
	<path d="M238.3,1007.4l7.8-7l5-48l-9.9-7.6h22.5l-5.8,55.5l9.2,7.1H238.3z M270.1,919.4l-11.9,16.3l-8.8-16.3H270.1z"/>
	<path d="M281.6,999.9l5-46.9l-9.2-8.2H299l-5.8,54.9l12.7,7.6h-32.3L281.6,999.9z M301.1,952.3l17.8-10.1l-2.1,20.4L301.1,952.3z"
		/>
	<path d="M335.1,981.4c0,11,3.8,23.2,9.6,26.7c-1.1,0.3-2.4,0.4-3.2,0.4c-11.8,0-19.2-11-19.2-26.3c0-21.3,13.9-37.9,31.1-37.9
		c1.3,0,2.3,0.1,3.8,0.3C344.6,950.1,335.1,963.8,335.1,981.4z M374.9,914.6c0.1,0.7,0.1,1.3,0.1,2.1c0,10.1-5.2,15.3-14.9,15.3
		c-7.9,0-12.1-3.6-12.1-10.1c0-2,0.4-4.6,1.2-7.4c2.4,7.5,5.1,9.8,11.8,9.8C367.9,924.4,371.5,922.1,374.9,914.6z M366.8,944.1
		l11.7,0.4l-5.8,55.1l9,7.8h-21.4L366.8,944.1z"/>
	<path d="M416.3,1000.4c3.5,0,7-1.2,10.2-3.5c-1.9,6.7-7.5,11.8-16.1,11.8c-8,0-15.8-4.2-14.7-14.5l4.6-41.5l-8.6,0.1l22.5-20.8
		l-6.3,58.3C407.2,997.7,410.4,1000.4,416.3,1000.4z M432,940.8l-1.7,17l-15.3-8.7L432,940.8z"/>
	<path d="M460.5,1008.6c-15.3,0-24.7-11.3-24.7-28.1s9.4-32,21.8-35.9c-6.6,12.2-9,23-9,33.5c0,15.9,5.6,22.2,17.2,22.2
		c5.8,0,11.5-1.5,16.3-4.8C478.5,1003.7,470.3,1008.6,460.5,1008.6z M473.8,965.7c0-9.5-2.7-18.6-6-21.7
		c11.3,1.1,18.1,9.4,18.1,22.5c0,3.4-0.4,6.8-1.3,10.6h-26.8l15.8-7.5C473.8,968.4,473.8,967,473.8,965.7z"/>
	<path d="M525.9,1000.7l5-48.2l-9.9-7.6h22.5l-5.8,55.2l9,7.4h-28.5L525.9,1000.7z M560.9,1000.9L564,972c0.3-3.4,0.5-6.3,0.5-9.1
		c0-9.9-2.7-15.5-9.5-18.1c2.5-0.5,5-0.8,7-0.8c11,0,14.7,6.7,14.7,15.7c0,1.3,0,2.7-0.1,4l-3.8,36l9.5,7.6h-29.1L560.9,1000.9z
		 M595.6,1000.8l3.1-29.2c0.3-2.7,0.4-5.4,0.4-7.6c0-10.9-3.5-16.6-13-19.2c2.7-0.5,5.1-0.8,7.4-0.8c13.3,0,18.1,7.1,18.1,16.5
		c0,1.1-0.1,2.1-0.3,3.2l-3.9,36l9.9,7.6h-29.3L595.6,1000.8z"/>
	<path d="M638.1,981.4c0,11,3.8,23.2,9.6,26.7c-1.1,0.3-2.4,0.4-3.2,0.4c-11.8,0-19.2-11-19.2-26.3c0-21.3,13.9-37.9,31.1-37.9
		c1.3,0,2.3,0.1,3.8,0.3C647.6,950.1,638.1,963.8,638.1,981.4z M677.9,914.6c0.1,0.7,0.1,1.3,0.1,2.1c0,10.1-5.2,15.3-14.9,15.3
		c-7.9,0-12.1-3.6-12.1-10.1c0-2,0.4-4.6,1.2-7.4c2.4,7.5,5.1,9.8,11.8,9.8C670.9,924.4,674.5,922.1,677.9,914.6z M669.8,944.1
		l11.7,0.4l-5.8,55.1l9,7.8h-21.4L669.8,944.1z"/>
	<path d="M699,999.9l5-46.9l-9.2-8.2h21.7l-5.8,54.9l12.7,7.6h-32.3L699,999.9z M718.5,952.3l17.8-10.1l-2.1,20.4L718.5,952.3z"/>
	<path d="M756.8,1034.8c-13,0-22.8-5.6-22.8-13.5c0-6.3,5.9-11.4,13.4-11.5c-1.1,2.3-1.9,5-1.9,7.4c0,7.6,5.9,13.8,16.5,17.3
		C759.9,1034.7,758.4,1034.8,756.8,1034.8z M741.1,968.1c0-11.7,8-21.3,19.7-23.7c-5,6.7-7.8,15.3-7.8,23.7c0,8.7,2.8,16.1,8.3,20.8
		C749.3,988.5,741.1,979.8,741.1,968.1z M780.2,1017.9c0-5.6-3.2-7.4-17.8-9.9l-3.9-0.7c-9.4-1.6-14.5-5-14.5-9.6
		c0-2,0.9-4.2,2.7-6.6c5.5,3.4,10.7,5,25.5,7.4c12.5,2,18.5,6.8,18.5,14.7c0,7.9-6.2,15-17,18.9
		C778.2,1026.7,780.2,1022.2,780.2,1017.9z M776.2,964.6c0-8.6-2.3-15.8-6.8-20.6c11.4,1.2,18.6,9.4,18.6,20.6
		c0,11.3-7.1,20.4-18.1,23.3C773.8,982.6,776.2,973.3,776.2,964.6z M799.9,939l-2,19.2l-12.5-9.6L799.9,939z"/>
	<path d="M815.5,981.4c0,11,3.8,23.2,9.6,26.7c-1.1,0.3-2.4,0.4-3.2,0.4c-11.8,0-19.2-11-19.2-26.3c0-21.3,13.9-37.9,31.1-37.9
		c1.3,0,2.3,0.1,3.8,0.3C825,950.1,815.5,963.8,815.5,981.4z M855.3,914.6c0.1,0.7,0.1,1.3,0.1,2.1c0,10.1-5.2,15.3-14.9,15.3
		c-7.9,0-12.1-3.6-12.1-10.1c0-2,0.4-4.6,1.2-7.4c2.4,7.5,5.1,9.8,11.8,9.8C848.3,924.4,851.9,922.1,855.3,914.6z M847.2,944.1
		l11.7,0.4l-5.8,55.1l9,7.8h-21.4L847.2,944.1z"/>
	<path d="M876.4,999.9l5-46.9l-9.2-8.2h21.7l-5.8,54.9l12.7,7.6h-32.3L876.4,999.9z M895.9,952.3l17.8-10.1l-2.1,20.4L895.9,952.3z"
		/>
	<path d="M915.3,1007.4l7.8-7l5-48l-9.9-7.6h22.5l-5.8,55.5l9.2,7.1H915.3z M947.1,919.4l-11.9,16.3l-8.8-16.3H947.1z"/>
	<path d="M978.8,1000.4c3.5,0,7-1.2,10.2-3.5c-1.9,6.7-7.5,11.8-16.1,11.8c-8,0-15.8-4.2-14.7-14.5l4.6-41.5l-8.6,0.1l22.5-20.8
		l-6.3,58.3C969.7,997.7,972.9,1000.4,978.8,1000.4z M994.5,940.8l-1.7,17l-15.3-8.7L994.5,940.8z"/>
	<path d="M1023,1008.6c-15.3,0-24.7-11.3-24.7-28.1s9.4-32,21.8-35.9c-6.6,12.2-9,23-9,33.5c0,15.9,5.6,22.2,17.2,22.2
		c5.8,0,11.5-1.5,16.3-4.8C1041,1003.7,1032.8,1008.6,1023,1008.6z M1036.3,965.7c0-9.5-2.7-18.6-6-21.7
		c11.3,1.1,18.1,9.4,18.1,22.5c0,3.4-0.4,6.8-1.3,10.6h-26.8l15.8-7.5C1036.3,968.4,1036.3,967,1036.3,965.7z"/>
	<path d="M1096.1,983.1c0,20.2,6.6,33.1,13.1,42.5c-15.7-5.2-25.3-24.1-25.3-45.6c0-26.8,15.9-54.9,36.6-61.6
		C1109.1,931,1096.1,956,1096.1,983.1z"/>
	<path d="M1119.4,1007.4l10.2-7.5l7.5-71.6l-12.9-8.8h26.5l-8.4,79.7l13,8.2H1119.4z M1162.8,963l30.4,44.4H1164l8.8-7.1l-20.4-30.3
		L1162.8,963z M1176.2,941.4c0-8.6-4-17.3-13.8-22c1.6-0.1,3.2-0.1,4.6-0.1c14.9,0,23.3,8.4,23.3,19.2c0,9.6-6.8,16.2-19.7,18.9
		C1174.1,953.5,1176.2,947.6,1176.2,941.4z"/>
	<path d="M1222,944.6c-7.4,9.4-11.4,22.2-11.4,35.1c0,13.3,4.2,23,12.3,28.8c-15.3,0-25.2-11.4-25.2-28.4
		C1197.8,963.3,1207.6,948.8,1222,944.6z M1231.9,1007.1c5.6-8.6,9.4-22,9.4-34.6c0-12.1-3.4-22.9-9.2-28.7
		c13.4,0.8,22.1,12.1,22.1,28C1254.2,988.2,1245.5,1002.1,1231.9,1007.1z"/>
	<path d="M1268.3,1000.7l5-48.2l-9.9-7.6h22.5l-5.8,55.2l9,7.4h-28.5L1268.3,1000.7z M1303.2,1000.9l3.1-28.9
		c0.3-3.4,0.5-6.3,0.5-9.1c0-9.9-2.7-15.5-9.5-18.1c2.5-0.5,5-0.8,7-0.8c11,0,14.7,6.7,14.7,15.7c0,1.3,0,2.7-0.1,4l-3.8,36l9.5,7.6
		h-29.1L1303.2,1000.9z M1337.9,1000.8l3.1-29.2c0.3-2.7,0.4-5.4,0.4-7.6c0-10.9-3.5-16.6-13-19.2c2.7-0.5,5.1-0.8,7.4-0.8
		c13.3,0,18.1,7.1,18.1,16.5c0,1.1-0.1,2.1-0.3,3.2l-3.9,36l9.9,7.6h-29.3L1337.9,1000.8z"/>
	<path d="M1380.4,981.4c0,11,3.8,23.2,9.6,26.7c-1.1,0.3-2.4,0.4-3.2,0.4c-11.8,0-19.2-11-19.2-26.3c0-21.3,13.9-37.9,31.1-37.9
		c1.3,0,2.3,0.1,3.8,0.3C1389.9,950.1,1380.4,963.8,1380.4,981.4z M1412.2,944.1l11.7,0.4l-5.8,55.1l9,7.8h-21.4L1412.2,944.1z"/>
	<path d="M1441.7,1000.7l5-48.2l-9.9-7.6h22.5l-5.8,55.2l9.2,7.4h-28.8L1441.7,1000.7z M1479.2,1000.8l3.3-29.2
		c0.4-3.2,0.5-5.9,0.5-8.6c0-10.2-2.9-15.5-9.8-18.2c2.5-0.5,4.8-0.8,6.7-0.8c11.3,0,15.4,6.8,15.4,15.9c0,1.3-0.1,2.5-0.3,3.8
		l-4.2,36.2l9.8,7.5h-29.2L1479.2,1000.8z"/>
	<path d="M1506.6,1007.4l7.8-7l5-48l-9.9-7.6h22.5l-5.8,55.5l9.2,7.1H1506.6z M1538.4,919.4l-11.9,16.3l-8.8-16.3H1538.4z"/>
	<path d="M1558,981.4c0,11,3.8,23.2,9.6,26.7c-1.1,0.3-2.4,0.4-3.2,0.4c-11.8,0-19.2-11-19.2-26.3c0-21.3,13.9-37.9,31.1-37.9
		c1.3,0,2.3,0.1,3.8,0.3C1567.5,950.1,1558,963.8,1558,981.4z M1589.7,944.1l11.7,0.4l-5.8,55.1l9,7.8h-21.4L1589.7,944.1z"/>
	<path d="M1654.4,998.8l7.1-67.1l-17.8-4.8l31.6-8.4l-8.4,80.3l13.9,8.7h-42.7L1654.4,998.8z"/>
	<path d="M1723.5,918.1c15.1,0,24.1,11.3,24.1,29.7c0,31.8-27.2,60.2-56.4,60.2c-1.9,0-2.5-0.1-3.6-0.1
		c29.2-7.9,47.2-30.7,47.2-59.6c0-16.2-5.8-27.2-13.7-27.2c-8.6,0-15.5,13.1-15.5,28.3c0,10.6,4.7,16.2,9.6,20.9
		c-13.9,0-22.5-7.9-22.5-21C1692.6,932.2,1706.7,918.1,1723.5,918.1z"/>
	<path d="M1767.1,998.8l7.1-67.1l-17.8-4.8l31.6-8.4l-8.4,80.3l13.9,8.7h-42.7L1767.1,998.8z"/>
	<path d="M1815.6,998.8l7.1-67.1l-17.8-4.8l31.6-8.4l-8.4,80.3l13.9,8.7h-42.7L1815.6,998.8z"/>
	<path d="M1867.1,961c0-20.2-6.6-33.1-13.1-42.5c15.5,5.2,25.2,24.1,25.2,45.7c0,26.8-15.9,54.9-36.4,61.5
		C1854.1,1013.1,1867.1,988.1,1867.1,961z"/>
</g>
<g>
	<path d="M170.8,1231.8c-32.2-14.3-67-27.4-67-69.5c0-38.1,27.1-64.4,66.6-64.4c3.3,0,7,0.4,10.2,0.4c-24.2,11-34.4,30.7-34.4,50.1
		c0,20.9,12.8,32.6,30,42.1l17.2-123.3l-4.4,129.2l0.4,0.4c33.7,15,75,27.8,75,77.2c0,41.4-28.9,68.1-70.6,68.1
		c-3.3,0-6.6,0-9.9-0.4l-1.1,32.6h-31.8L170.8,1231.8z M107.5,1339v-71.4l44.3,72.8L107.5,1339z M187.7,1239.8l-3.7,100.6
		c20.9-6.2,38.4-26.4,38.4-50.9C222.5,1264,207.1,1250.4,187.7,1239.8z M249.9,1167.4l-44.3-69.2l44.3,1.5V1167.4z"/>
	<path d="M301.1,1191.2c88.9,1.1,131.4,26.4,131.4,77.6c0,45.7-33.7,74.7-84.2,74.7c-32.6,0-52.3-12.1-61.5-36.2
		c12.1,6.6,34,11.7,51.2,11.7c33.3,0,53.1-18.3,53.1-45.7c0-33.3-29.3-47.6-93-49.8L301.1,1191.2z M305.9,1099.7h117.9l-3.7,32.6
		H303.3L305.9,1099.7z"/>
	<path d="M593.2,1339.7H527l25.6-21.2v-196.2l-36.6-22.7h77.2V1339.7z M719.1,1221.9c0-58.6-31.1-102.1-89.3-122.6
		c20.9-1.1,13.2-0.7,17.9-0.7c71,0,114.9,45.7,114.9,120c0,73.9-45,122.6-114.9,122.6c-6.6,0-13.5-0.4-19.8-1.5
		C685.8,1324,719.1,1282.3,719.1,1221.9z"/>
	<path d="M804.7,1320.7v-129.2l-27.4-23.1h64.8v150.4l37.7,20.9h-94.4L804.7,1320.7z M851.6,1192.6l46.1-31.5l0.4,62.6L851.6,1192.6
		z"/>
	<path d="M933.6,1321.8v-200.9l-28.5-21.2h66.2v221.1l27.4,19h-84.2L933.6,1321.8z M1026.5,1323.3l-49.8-67l27.8-24.9l80.9,108.3
		h-73.9L1026.5,1323.3z M1082.9,1168.5l-45.4,33.3l-34-33.3H1082.9z"/>
	<path d="M1178.4,1303.5c0-22-13.2-28.5-36.6-37.3c-29.3-11-50.9-22.3-50.9-50.9c0-30,23.8-49,52.7-49.4
		c-13.2,9.5-17.6,22.7-17.6,35.5c0,17.6,9.2,23.8,34,32.9c27.5,9.5,54.2,23.1,54.2,54.5c0,27.4-16.8,50.1-56,52.3
		C1173.7,1328.8,1178.4,1314.9,1178.4,1303.5z M1092.4,1288.1l45.4,53.1l-42.8-2.9L1092.4,1288.1z M1161.6,1166.3l42.1,2.2l3.3,48.7
		L1161.6,1166.3z"/>
	<path d="M1251.3,1321.1v-198l-28.5-23.4h66.2v221.4l27.5,18.7h-84.2L1251.3,1321.1z M1355.2,1321.8l0.7-87.5
		c0.4-37.3-9.5-56.7-32.6-64.8c8.4-2.6,16.1-3.7,23.1-3.7c32.6,0,47.6,22,47.6,53.1l-1.1,101.7l28.9,19h-84.9L1355.2,1321.8z"/>
	<path d="M1472.3,1253.7c0,37,15.7,74.3,36.2,86.7c-5.9,1.8-11,2.2-16.1,2.2c-36.6,0-61.1-31.8-61.1-81.3
		c0-56.4,31.8-95.5,77.2-95.5c4,0,8.1,0.4,11.7,1.1C1489.9,1183.1,1472.3,1215.7,1472.3,1253.7z M1545.5,1123.1l-38.8-23.4h76.5
		v216.7l27.4,23.4h-65.1V1123.1z"/>
	<path d="M1622.4,1186l-15.7-17.6h73.6l-19,14.3l51.6,157h-39.5L1622.4,1186z M1750.8,1184.2l55.3,155.5h-39.9l-54.5-154.8
		l-15.7-16.5h75.8L1750.8,1184.2z M1845.6,1192.6l-30.4,78.3l5.9-82.3l-27.1-20.1h69.2L1845.6,1192.6z"/>
</g>
<g>
	<path d="M86.5,1512.8l8.6-8.6l25.5-50.9l-15,50.5l14.1,9H86.5z M144.2,1477.8l-13.9-52.9h15.1l22,80.7l6.7,7.2h-35.9l13.4-7.1
		l-4.7-17.7l-27.5-4.8L144.2,1477.8z"/>
	<path d="M185.6,1506.5l5-48.2l-9.4-8.2H205l-5.9,55.6l8.4,7.1H178L185.6,1506.5z M220.7,1506.6l3.5-31.8c0.3-2.7,0.5-5,0.5-7.2
		c0-9.4-2.9-14.7-9.5-17.2c3.1-0.9,6-1.3,8.4-1.3c10.3,0,14.9,6.3,14.9,15.8c0,1.2,0,2.3-0.1,3.6l-4,37l9.1,7.2h-29.9L220.7,1506.6z
		 M255.8,1506.2l3.4-31.5c0.3-2.4,0.4-4.6,0.4-6.6c0-9.8-3.4-15.3-11.5-17.7c3.2-0.9,6.2-1.3,8.7-1.3c11.5,0,16.9,6.6,16.9,16.2
		c0,1.1-0.1,2.1-0.3,3.2l-4,37.1l9.8,7.1h-30.6L255.8,1506.2z"/>
	<path d="M286.8,1493.9l14.2,19.4l-15.3-1.1L286.8,1493.9z M317.2,1499.3c0-14.3-28.3-15-28.3-32c0-9.8,9.2-18,20.9-18.1
		c-4.6,3.2-7.8,8.3-7.8,12.7c0,13.4,28.4,15,28.4,33.4c0,10.1-8.2,17.3-22.1,18.1C314.4,1509.1,317.2,1503.8,317.2,1499.3z
		 M316.3,1449.3l15,0.8l-0.7,17.8L316.3,1449.3z"/>
	<path d="M367.5,1504.9c3.6,0,7.2-1.2,10.6-3.1c-2.8,8.4-10.2,12.3-18,12.3c-8.6,0-16.8-4.8-15.5-15.7l4.4-40.2l-8.8,0.1l24.7-21.7
		l-6.3,57.9C357.8,1501.6,361,1504.9,367.5,1504.9z M382.9,1445.7l-1.9,18.2l-15.7-9.4L382.9,1445.7z"/>
	<path d="M411.3,1514c-15.5,0-25.2-11.4-25.2-28.3c0-17.3,10.1-32.7,23.5-36.3c-5.8,11-8.6,23.2-8.6,33.6c0,15.4,6,22,17.8,22
		c5.4,0,10.2-1.3,15-4.6C430,1509.1,421.5,1514,411.3,1514z M424.3,1469.5c0-9.2-2.5-17.3-6.2-20.5c12.3,0.5,19.6,8.8,19.6,22.6
		c0,3.4-0.4,7-1.3,10.7h-27.2l14.9-7.5C424.3,1473,424.3,1471.3,424.3,1469.5z"/>
	<path d="M449.9,1505.8l5-47.2l-8.8-8.6h23.2l-5.8,55.1l12.7,7.6h-33.9L449.9,1505.8z M471.6,1458.9l17.8-11.5l-2.3,22.9
		L471.6,1458.9z"/>
	<path d="M508,1486.3c0,11.5,4.2,22.9,9.9,26.8c-2,0.7-4,0.8-5.5,0.8c-11.7,0-19.4-11.1-19.4-26.5c0-21.2,14.3-38.2,31.6-38.2
		c1.5,0,2.8,0.1,4.3,0.4C516.1,1456.1,508,1470.2,508,1486.3z M539.6,1433.6l-13-8.7H554l-8.3,79.3l9.1,8.6h-23.5L539.6,1433.6z"/>
	<path d="M578.4,1485.9c0,11.3,3.9,22.9,9.9,27.1c-2,0.5-4,0.8-5.5,0.8c-11.7,0-19.4-11.5-19.4-27.1c0-21.2,14.2-37.5,31.6-37.5
		c1.5,0,2.8,0.1,4.3,0.4C586.9,1455.9,578.4,1469.3,578.4,1485.9z M608.4,1449.3l13.3,0.5l-5.6,54.4l9.1,8.6h-23.5L608.4,1449.3z"/>
	<path d="M638.4,1506.5l5-48.2l-9.4-8.2h23.9l-5.9,55.6l8.4,7.1h-29.6L638.4,1506.5z M673.5,1506.6l3.5-31.8c0.3-2.7,0.5-5,0.5-7.2
		c0-9.4-2.9-14.7-9.5-17.2c3.1-0.9,6-1.3,8.4-1.3c10.3,0,14.9,6.3,14.9,15.8c0,1.2,0,2.3-0.1,3.6l-4,37l9.1,7.2h-29.9L673.5,1506.6z
		 M708.6,1506.2l3.4-31.5c0.3-2.4,0.4-4.6,0.4-6.6c0-9.8-3.4-15.3-11.5-17.7c3.2-0.9,6.2-1.3,8.7-1.3c11.5,0,16.9,6.6,16.9,16.2
		c0,1.1-0.1,2.1-0.3,3.2l-4,37.1l9.8,7.1h-30.6L708.6,1506.2z"/>
	<path d="M774,1505.4l7.6-72.2l-12.5-8.3h38.6l-11.5,7.6l-7.5,72l13.4,8.3h-38.3L774,1505.4z M829.9,1505.6l3.5-33.5l-33.1-5.1
		l34.2-5.6l2.9-28.3l-12.3-8.2h38.5l-11.4,7.6l-7.5,72l13.4,8.3h-38.3L829.9,1505.6z"/>
	<path d="M879.1,1485.9c0,11.3,3.9,22.9,9.9,27.1c-2,0.5-4,0.8-5.5,0.8c-11.7,0-19.4-11.5-19.4-27.1c0-21.2,14.2-37.5,31.6-37.5
		c1.5,0,2.8,0.1,4.3,0.4C887.6,1455.9,879.1,1469.3,879.1,1485.9z M909.1,1449.3l13.3,0.5l-5.6,54.4l9.1,8.6h-23.5L909.1,1449.3z"/>
	<path d="M938.8,1505.8l5-47.2l-8.8-8.6h23.2l-5.8,55.1l12.7,7.6h-33.9L938.8,1505.8z M960.5,1458.9l17.8-11.5l-2.3,22.9
		L960.5,1458.9z"/>
	<path d="M997,1486.3c0,11.5,4.2,22.9,9.9,26.8c-2,0.7-4,0.8-5.5,0.8c-11.7,0-19.4-11.1-19.4-26.5c0-21.2,14.3-38.2,31.6-38.2
		c1.5,0,2.8,0.1,4.3,0.4C1005,1456.1,997,1470.2,997,1486.3z M1028.6,1433.6l-13-8.7h27.3l-8.3,79.3l9.1,8.6h-23.5L1028.6,1433.6z"
		/>
	<path d="M1066.9,1481.9c0,14.5,6.4,23.2,17.3,23.2c4.3,0,9.1-1.5,13.4-4.2c-3.5,8.6-11.8,13.3-21.4,13.3c-15,0-24.1-11.8-24.1-29.2
		c0-19.4,11.3-34.4,26.1-35.4C1071.6,1456.4,1066.9,1469.7,1066.9,1481.9z M1086.1,1449.3l15.7,0.8l-2,23.2L1086.1,1449.3z"/>
	<path d="M1132.5,1449.8c-6.2,9.5-9.8,22.4-9.8,35.2c0,12.2,3.5,22.2,10.7,28.9c-16.2,0-25.7-11.4-25.7-28.3
		C1107.7,1469.4,1117.2,1454.5,1132.5,1449.8z M1142.5,1512.7c5.1-8.8,8.6-22.2,8.6-34.8c0-11.8-2.9-22.6-8.8-28.9
		c14.6,0.5,23.7,12.2,23.7,28.1C1166,1493.6,1157.5,1507.7,1142.5,1512.7z"/>
	<path d="M1178.8,1505.8l5-47.2l-8.8-8.6h23.2l-5.8,55.1l12.7,7.6h-33.9L1178.8,1505.8z M1200.5,1458.9l17.8-11.5l-2.3,22.9
		L1200.5,1458.9z"/>
	<path d="M1247.3,1514c-15.5,0-25.2-11.4-25.2-28.3c0-17.3,10-32.7,23.5-36.3c-5.8,11-8.6,23.2-8.6,33.6c0,15.4,6,22,17.8,22
		c5.4,0,10.2-1.3,15-4.6C1266,1509.1,1257.5,1514,1247.3,1514z M1260.3,1469.5c0-9.2-2.5-17.3-6.2-20.5c12.3,0.5,19.6,8.8,19.6,22.6
		c0,3.4-0.4,7-1.3,10.7h-27.2l14.9-7.5C1260.3,1473,1260.3,1471.3,1260.3,1469.5z"/>
	<path d="M1339.3,1424.9l-8.4,79.3l17.2,8.6h-41.9l10.2-7.8l7.5-71.4l-12.7-8.7H1339.3z M1363.3,1448.5c0-11.5-6.2-20.6-14.5-23.6
		c1.9-0.3,3.8-0.3,5.4-0.3c16.2,0,25.1,10.5,25.1,23.9c0,16.3-13.4,28.3-31.8,28.3c-0.8,0-1.6,0-2.5-0.1
		C1357.6,1470.9,1363.3,1459.9,1363.3,1448.5z"/>
	<path d="M1392.3,1457.5l-9.5-7.4h23.9l-4.3,38.1c-0.3,2.5-0.4,4.8-0.4,7c0,9.5,3.1,14.7,9.5,17.2c-3.1,1.1-5.9,1.5-8.3,1.5
		c-10.3,0-15.3-6.4-15.3-16.1c0-1.1,0.1-2.1,0.3-3.4L1392.3,1457.5z M1423.4,1512.8l5.8-55.2l-9.8-7.5h24.1l-5.6,54.1l9.4,8.6
		H1423.4z"/>
	<path d="M1460.5,1506.5l5-48.2l-9.4-8.2h23.9l-5.9,55.3l9.1,7.4h-30.3L1460.5,1506.5z M1497.6,1506.6l3.6-31.9
		c0.3-2.7,0.4-4.8,0.4-7.1c0-9.4-2.9-14.7-9.5-17.2c3.1-0.9,5.9-1.3,8.3-1.3c10.3,0,15.3,6.4,15.3,15.9c0,1.2-0.1,2.3-0.3,3.5
		l-4.2,36.9l9.8,7.4h-30.6L1497.6,1506.6z"/>
	<path d="M1532,1506.2l7.8-73.4l-9.5-7.9h23.9l-8.4,80.9l9.1,7h-30.3L1532,1506.2z M1565.8,1506.8l-15.3-24.5l9.9-9l25.3,39.5H1560
		L1565.8,1506.8z M1591.5,1450.1l-17.6,12.2l-11-12.2H1591.5z"/>
	<path d="M1694.3,1424.9l-0.5,7.9l-64.9,80h-12.7l0.4-7.8l65-80.1H1694.3z M1624.4,1451.7l2.9-26.8h19L1624.4,1451.7z
		 M1667.6,1512.8l21.4-26.7l-2.9,26.7H1667.6z"/>
	<path d="M1696,1512.8l7.6-6.7l5-47.8l-9.4-8.2h23.9l-5.9,55.7l9.1,7H1696z M1728.9,1424.9l-12.5,17.6l-9.1-17.6H1728.9z"/>
	<path d="M1739.9,1506.5l5-48.2l-9.4-8.2h23.9l-5.9,55.3l9.1,7.4h-30.3L1739.9,1506.5z M1777,1506.6l3.6-31.9
		c0.3-2.7,0.4-4.8,0.4-7.1c0-9.4-2.9-14.7-9.5-17.2c3.1-0.9,5.9-1.3,8.3-1.3c10.3,0,15.3,6.4,15.3,15.9c0,1.2-0.1,2.3-0.3,3.5
		l-4.2,36.9l9.8,7.4h-30.6L1777,1506.6z"/>
	<path d="M1833.4,1514c-15.5,0-25.2-11.4-25.2-28.3c0-17.3,10-32.7,23.5-36.3c-5.8,11-8.6,23.2-8.6,33.6c0,15.4,6,22,17.8,22
		c5.4,0,10.2-1.3,15-4.6C1852.2,1509.1,1843.6,1514,1833.4,1514z M1846.4,1469.5c0-9.2-2.5-17.3-6.2-20.5
		c12.3,0.5,19.6,8.8,19.6,22.6c0,3.4-0.4,7-1.3,10.7h-27.2l14.9-7.5C1846.4,1473,1846.4,1471.3,1846.4,1469.5z"/>
</g>
<g>
	<path d="M92.3,1682.8v-77.2h55.3L92.3,1682.8z M128.9,1845.7l40.3-24.2v-215.9h48.7v216.7l46.5,23.4H128.9z M294,1681.3l-55.3-75.8
		H294V1681.3z"/>
	<path d="M310.1,1845.7l18.7-16.5v-130.7l-26.7-25.3h71.7V1827l26.7,18.7H310.1z M380.7,1605.6l-31.8,53.1l-31.8-53.1H380.7z"/>
	<path d="M427.6,1829.9v-131.4l-26.7-25.3h71.7v154.5l23.1,17.9h-86.7L427.6,1829.9z M526.8,1830.3l0.7-98.5
		c0-30.7-10.2-48.7-31.1-54.9c10.6-4.4,20.5-6.6,29.3-6.6c27.8,0,46.8,19.4,46.8,52l-0.7,105.4l25.3,17.9h-86.7L526.8,1830.3z
		 M625.6,1828.8l0.7-97c0-30.7-10.2-48.7-31.1-54.9c10.6-4.4,20.5-6.6,29.3-6.6c27.8,0,46.8,19.4,46.8,52l-0.7,105.4l28.9,17.9
		h-90.4L625.6,1828.8z"/>
	<path d="M784.8,1849.3c-49,0-79.8-32.6-79.8-84.9c0-47.6,25.3-85.6,61.9-93.7c-8.4,20.1-13.2,47.2-13.2,73.9
		c0,52,17.9,73.9,58.9,73.9c12.4,0,21.6-2.2,35.1-8.1C840.1,1835.1,817.4,1849.3,784.8,1849.3z M784.1,1669.6
		c48.7,0,73.9,34.8,67.3,92.2h-78.3l35.5-20.5C808.6,1705.5,800.2,1681,784.1,1669.6z"/>
	<path d="M1066.6,1605.6l1.5,24.2L910,1845.7h-41.4l-1.5-24.2l158.1-215.9H1066.6z M874.8,1679.2v-73.6h55.3L874.8,1679.2z
		 M1013.2,1845.7l55.3-75v75H1013.2z"/>
	<path d="M1150.1,1672.2c-6.6,20.5-11,46.5-11,72.8c0,37.3,8.8,76.1,32.6,103.6c-53.1,0-81.6-32.2-81.6-86.7
		C1090,1720.9,1111.6,1685.7,1150.1,1672.2z M1197.6,1846c7.3-19.8,11.7-45.4,11.7-71.7c0-39.9-9.9-80.9-33.3-104.7
		c49.8,0,81.6,35.1,81.6,85.6C1257.7,1800.7,1240.1,1833.2,1197.6,1846z"/>
	<path d="M1293.9,1829.9v-131.4l-26.7-25.3h71.7v153l26.7,19.4h-90.4L1293.9,1829.9z M1396.4,1830.3l0.7-98.5
		c0-30.7-10.2-48.7-31.1-54.9c10.6-4.4,20.5-6.6,29.3-6.6c27.8,0,46.8,19.4,46.8,52l-0.7,104.3l29.3,19h-90.4L1396.4,1830.3z"/>
	<path d="M1555.6,1849.3c-49,0-79.8-32.6-79.8-84.9c0-47.6,25.3-85.6,61.9-93.7c-8.4,20.1-13.2,47.2-13.2,73.9
		c0,52,17.9,73.9,58.9,73.9c12.4,0,21.6-2.2,35.1-8.1C1610.9,1835.1,1588.2,1849.3,1555.6,1849.3z M1554.9,1669.6
		c48.7,0,73.9,34.8,67.3,92.2h-78.3l35.5-20.5C1579.4,1705.5,1571,1681,1554.9,1669.6z"/>
	<path d="M1641.2,1658.3c0-31.8,25.6-52.7,55.6-52.7c23.4,0,52,12.8,52,47.2c0,33.7-27.4,53.8-55.6,53.8
		C1669.4,1706.6,1641.2,1692,1641.2,1658.3z M1650,1845.7l188.1-248.5l-146.8,248.5H1650z M1713.3,1656.5c0-14.3-2.2-34.8-18.7-34.8
		c-15,0-17.9,16.8-17.9,33.7c0,7.3,0.7,34,19,34C1710.8,1689.4,1713.3,1672.6,1713.3,1656.5z M1754,1801c0-31.8,25.6-52.7,55.6-52.7
		c23.4,0,52,12.8,52,47.2c0,33.7-27.5,53.8-55.6,53.8C1782.1,1849.3,1754,1834.7,1754,1801z M1826.1,1799.2
		c0-14.3-2.2-34.8-18.7-34.8c-15,0-17.9,16.8-17.9,33.7c0,7.3,0.7,34,19,34C1823.5,1832.1,1826.1,1815.3,1826.1,1799.2z"/>
</g>
<g>
	<path d="M98.1,1977.4c0,18.8,9.2,35.1,23.5,41.1c-2.9,0.7-6.4,0.9-9.1,0.9c-20,0-33.8-16.6-33.8-39.4c0-28.5,21.6-50.1,48-50.1
		c2,0,2.4,0.1,3.4,0.1C110.3,1937.6,98.1,1955.8,98.1,1977.4z M138.9,1984.5l-14.1-8.3h41.1l-9.5,7.4l-3.2,31.8l-17.7,2.5
		L138.9,1984.5z M159.1,1959.3l-16.8-29.5l19.7,1.2L159.1,1959.3z"/>
	<path d="M188,1990.1c0,11.7,4,22.6,10.3,27.5c-3.4,1.1-6.6,1.6-9,1.6c-11.5,0-19.7-12.5-19.7-28.3c0-20.9,14.5-36.9,32.3-36.9
		c1.9,0,3.8,0.1,5.1,0.5C195.1,1962,188,1974.7,188,1990.1z M215.4,1954.5l15.8,0.8l-5.5,53.3l9.2,9.8h-26.4L215.4,1954.5z"/>
	<path d="M259.2,2019.2l-15.9-1.3l8.2-78.1l-8.6-9.2h25.7L259.2,2019.2z M286.9,1980.7c0-11-3.2-20.5-8.3-24.8
		c2.9-1.1,6-1.6,8.4-1.6c10.5,0,17.6,11,17.6,26.1c0,21.7-14.3,39.3-32.2,39.3c-1.7,0-3.8-0.1-5.2-0.5
		C279.4,2012.2,286.9,1997.5,286.9,1980.7z"/>
	<path d="M316,2012l5-47.4l-8.6-9.2h25.7l-5.9,55.5l12.7,7.6h-36.3L316,2012z M340.9,1966.1l18-13.5l-2.7,26.8L340.9,1966.1z"/>
	<path d="M359.9,2018.4l7.4-6l5-47.8l-8.6-9.2h25.7l-6,56.3l9,6.8H359.9z M394.5,1930.5l-13.5,19.4l-9.4-19.4H394.5z"/>
	<path d="M426,2019.6c-16.1,0-26-11.7-26-28.5c0-18,11.1-33.5,26-36.7c-4.6,9-7.9,23.2-7.9,33.8c0,14.6,6.3,21.6,18.5,21.6
		c5,0,8.4-1.2,13.1-4.3C446,2014.4,436.9,2019.6,426,2019.6z M438.7,1972.7c0-9-2.3-15.4-6.6-18.8c14.1,0,22,8.2,22,22.8
		c0,3.5-0.4,7.1-1.3,11h-28l13.5-7.5C438.6,1977.5,438.7,1975,438.7,1972.7z"/>
	<path d="M463.7,2012.4l7.6-72.6l-8.7-9.2h25.9l-8.6,81.2l8.8,6.7h-32.4L463.7,2012.4z"/>
	<path d="M543.3,1977.4c0,18.8,9.2,35.1,23.5,41.1c-2.9,0.7-6.4,0.9-9.1,0.9c-20,0-33.8-16.6-33.8-39.4c0-28.5,21.6-50.1,48-50.1
		c2,0,2.4,0.1,3.4,0.1C555.5,1937.6,543.3,1955.8,543.3,1977.4z M584,1984.5l-14.1-8.3h41.1l-9.5,7.4l-3.2,31.8l-17.7,2.5
		L584,1984.5z M604.2,1959.3l-16.8-29.5l19.7,1.2L604.2,1959.3z"/>
	<path d="M633.2,1990.1c0,11.7,4,22.6,10.3,27.5c-3.4,1.1-6.6,1.6-9,1.6c-11.5,0-19.7-12.5-19.7-28.3c0-20.9,14.5-36.9,32.3-36.9
		c1.9,0,3.8,0.1,5.1,0.5C640.3,1962,633.2,1974.7,633.2,1990.1z M660.5,1954.5l15.8,0.8l-5.5,53.3l9.2,9.8h-26.4L660.5,1954.5z"/>
	<path d="M691.5,2012l5-47.4l-8.6-9.2h25.7l-5.9,55.5l12.7,7.6h-36.3L691.5,2012z M716.4,1966.1l18-13.5l-2.7,26.8L716.4,1966.1z"/>
	<path d="M756.4,1985.6c0,15.4,6.7,23.7,17.4,23.7c4.2,0,8.2-1.2,11.7-3.4c-3.9,8.8-12.7,13.8-22.4,13.8
		c-15.4,0-24.8-12.7-24.8-30.4c0-19,11-32.6,27.6-34.4C760.1,1962.1,756.4,1974.4,756.4,1985.6z M773.9,1954.1l16.3,1.2l-2.3,23.7
		L773.9,1954.1z"/>
	<path d="M792,2018.4l7.4-6l5-47.8l-8.6-9.2h25.7l-6,56.3l9,6.8H792z M825.3,1921.5l6,10.1l-27.9,13L825.3,1921.5z"/>
	<path d="M850.4,1990.1c0,11.7,4,22.6,10.3,27.5c-3.4,1.1-6.6,1.6-9,1.6c-11.5,0-19.7-12.5-19.7-28.3c0-20.9,14.5-36.9,32.3-36.9
		c1.9,0,3.8,0.1,5.1,0.5C857.5,1962,850.4,1974.7,850.4,1990.1z M877.7,1954.5l15.8,0.8l-5.5,53.3l9.2,9.8h-26.4L877.7,1954.5z"/>
	<path d="M926,2018.4l14.6-13.5l16.2,13.5H926z M971.9,2015.6l-18.4-58.7H953l-10.3,31.1l2-49l-13.3-8.4h31.5l24.9,79.1
		L971.9,2015.6z M991.7,1987.7l24.9-57.2h29.7l-12.9,6.8l-7.4,73.4l11.7,7.6h-37.5l8.3-6.8l5.4-53.6h-0.5L991.7,1987.7z"/>
	<path d="M1062.4,1990.1c0,11.7,4,22.6,10.3,27.5c-3.4,1.1-6.6,1.6-9,1.6c-11.5,0-19.7-12.5-19.7-28.3c0-20.9,14.5-36.9,32.3-36.9
		c1.9,0,3.8,0.1,5.1,0.5C1069.5,1962,1062.4,1974.7,1062.4,1990.1z M1089.7,1954.5l15.8,0.8l-5.5,53.3l9.2,9.8h-26.4L1089.7,1954.5z
		 M1104.8,1921.5l6,10.1l-27.9,13L1104.8,1921.5z"/>
	<path d="M1120.7,2012l5-47.4l-8.6-9.2h25.7l-5.9,55.5l12.7,7.6h-36.3L1120.7,2012z M1145.6,1966.1l18-13.5l-2.7,26.8L1145.6,1966.1
		z"/>
	<path d="M1184.8,1992.5c0,11.3,3.3,21.7,8.3,25.7c-3.1,1.1-6.2,1.6-8.4,1.6c-10.5,0-17.6-10.9-17.6-26.1
		c0-21.8,14.3-39.4,32.2-39.4c1.7,0,3.5,0.1,5.2,0.5C1192.1,1961.9,1184.8,1975.8,1184.8,1992.5z M1188.1,2044.9l15.5-7.5l8.6-82.1
		l16.1,1.3l-8.6,81.3l5.8,7H1188.1z"/>
	<path d="M1245.1,1962.4l-9.8-7.1h26.7l-4.6,41.7c-0.3,1.6-0.3,3.1-0.3,4.6c0,8.4,3.1,13.5,9.2,15.5c-4,1.6-7.6,2.4-10.7,2.4
		c-9.1,0-15-5.9-15-16.1c0-0.9,0-1.9,0.1-2.9L1245.1,1962.4z M1276.1,2018.4l5.9-56l-9-7.1h25.9l-5.8,53.9l8.7,9.2H1276.1z"/>
	<path d="M1335.6,2019.6c-16.1,0-26-11.7-26-28.5c0-18,11.1-33.5,26-36.7c-4.6,9-7.9,23.2-7.9,33.8c0,14.6,6.3,21.6,18.5,21.6
		c5,0,8.4-1.2,13.1-4.3C1355.6,2014.4,1346.4,2019.6,1335.6,2019.6z M1348.3,1972.7c0-9-2.3-15.4-6.6-18.8c14.1,0,22,8.2,22,22.8
		c0,3.5-0.4,7.1-1.3,11h-28l13.5-7.5C1348.2,1977.5,1348.3,1975,1348.3,1972.7z"/>
	<path d="M1421.9,1955.3l-0.1,7.8l-38.9,55.3h-15l0.5-7.2l39.5-55.9H1421.9z M1375.5,1955.3h17.4l-20.6,22L1375.5,1955.3z
		 M1419.7,1996.8l-3.2,21.6h-19.4L1419.7,1996.8z"/>
	<path d="M1450,2018.4l15.5-13.5l25.6,13.5H1450z M1477.2,1954.9h-0.5l-9.2,32.7l1.2-48l-14.3-9.1h28.4l41.8,63.4h0.7l9.9-32
		l-2,56.5h-13.8L1477.2,1954.9z M1537.4,1944l-24.5-13.5h40.1L1537.4,1944z"/>
	<path d="M1573.7,1954.9c-4.2,9.8-7.2,22.8-7.2,35.4c0,10.9,2.3,21.3,8.2,29.2c-17.3,0-26.3-11.3-26.3-27.9
		C1548.4,1976.1,1557.5,1960.5,1573.7,1954.9z M1584,2018.5c4.4-9.5,7.5-22.8,7.5-35.4c0-11.4-2.5-22.2-8.4-29.2
		c16.3,0,26.3,12.2,26.3,28.3C1609.3,1999.4,1601.2,2013.4,1584,2018.5z"/>
	<path d="M1634.9,1961.2l13.5,57.2h-16.6l-12.9-55.5l-5.8-7.6h31.8L1634.9,1961.2z M1671.1,1963.6l-16.6,29.6l6.4-29.9l-9.4-8h27.3
		L1671.1,1963.6z"/>
	<path d="M1702.1,2019.6c-16.1,0-26-11.7-26-28.5c0-18,11.1-33.5,26-36.7c-4.6,9-7.9,23.2-7.9,33.8c0,14.6,6.3,21.6,18.5,21.6
		c5,0,8.4-1.2,13.1-4.3C1722,2014.4,1712.9,2019.6,1702.1,2019.6z M1714.8,1972.7c0-9-2.3-15.4-6.6-18.8c14.1,0,22,8.2,22,22.8
		c0,3.5-0.4,7.1-1.3,11h-28l13.5-7.5C1714.7,1977.5,1714.8,1975,1714.8,1972.7z"/>
	<path d="M1739.7,2012.4l7.6-72.6l-8.7-9.2h25.9l-8.6,81.2l8.8,6.7h-32.4L1739.7,2012.4z"/>
	<path d="M1775.2,2012.4l7.6-72.6l-8.7-9.2h25.9l-8.6,81.2l8.8,6.7h-32.4L1775.2,2012.4z"/>
	<path d="M1826.3,1990.1c0,11.7,4,22.6,10.3,27.5c-3.4,1.1-6.6,1.6-9,1.6c-11.5,0-19.7-12.5-19.7-28.3c0-20.9,14.5-36.9,32.3-36.9
		c1.9,0,3.8,0.1,5.1,0.5C1833.4,1962,1826.3,1974.7,1826.3,1990.1z M1853.6,1954.5l15.8,0.8l-5.5,53.3l9.2,9.8h-26.4L1853.6,1954.5z
		"/>
</g>
</svg>
